<svg width="40" height="40" viewBox="0 0 40 40" fill="none" xmlns="http://www.w3.org/2000/svg">
<mask id="mask0_8_67" style="mask-type:alpha" maskUnits="userSpaceOnUse" x="2" y="2" width="36" height="36">
<path d="M10.0002 10L15.8336 15.8333M30.0002 30L24.1669 24.1667M30.0002 10L24.1669 15.8333M10.0002 30L15.8336 24.1667" stroke="white" stroke-width="3.34266" stroke-linecap="round" stroke-linejoin="round"/>
<path d="M15.8335 15.8333H24.1668V24.1667H15.8335V15.8333Z" fill="white" stroke="white" stroke-width="3.34266" stroke-linecap="round" stroke-linejoin="round"/>
<path d="M30.0001 15.8333C31.1538 15.8333 32.2816 15.4912 33.2409 14.8502C34.2002 14.2093 34.9479 13.2982 35.3894 12.2323C35.8309 11.1664 35.9464 9.99353 35.7213 8.86197C35.4963 7.73042 34.9407 6.69102 34.1249 5.87521C33.3091 5.0594 32.2697 4.50383 31.1381 4.27875C30.0066 4.05367 28.8337 4.16919 27.7678 4.6107C26.7019 5.05221 25.7908 5.79989 25.1498 6.75917C24.5089 7.71846 24.1668 8.84628 24.1668 10M30.0001 24.1667C31.1538 24.1667 32.2816 24.5088 33.2409 25.1498C34.2002 25.7907 34.9479 26.7018 35.3894 27.7677C35.8309 28.8336 35.9464 30.0065 35.7213 31.138C35.4963 32.2696 34.9407 33.309 34.1249 34.1248C33.3091 34.9406 32.2697 35.4962 31.1381 35.7212C30.0066 35.9463 28.8337 35.8308 27.7678 35.3893C26.7019 34.9478 25.7908 34.2001 25.1498 33.2408C24.5089 32.2815 24.1668 31.1537 24.1668 30M10.0001 24.1667C8.84636 24.1667 7.71854 24.5088 6.75926 25.1498C5.79997 25.7907 5.0523 26.7018 4.61079 27.7677C4.16928 28.8336 4.05376 30.0065 4.27884 31.138C4.50392 32.2696 5.05949 33.309 5.87529 34.1248C6.6911 34.9406 7.7305 35.4962 8.86206 35.7212C9.99361 35.9463 11.1665 35.8308 12.2324 35.3893C13.2983 34.9478 14.2093 34.2001 14.8503 33.2408C15.4913 32.2815 15.8334 31.1537 15.8334 30M10.0001 15.8333C8.84636 15.8333 7.71854 15.4912 6.75926 14.8502C5.79997 14.2093 5.0523 13.2982 4.61079 12.2323C4.16928 11.1664 4.05376 9.99353 4.27884 8.86197C4.50392 7.73042 5.05949 6.69102 5.87529 5.87521C6.6911 5.0594 7.7305 4.50383 8.86206 4.27875C9.99361 4.05367 11.1665 4.16919 12.2324 4.6107C13.2983 5.05221 14.2093 5.79989 14.8503 6.75917C15.4913 7.71846 15.8334 8.84628 15.8334 10" stroke="white" stroke-width="3.34266" stroke-linecap="round" stroke-linejoin="round"/>
</mask>
<g mask="url(#mask0_8_67)">
<path d="M0 0H40V40H0V0Z" fill="white"/>
</g>
</svg>
